<?xml version="1.0" encoding="UTF-8"?>
<svg width="539.67" height="404.69" version="1.1" viewBox="0 0 539.67 404.69" xml:space="preserve" xmlns="http://www.w3.org/2000/svg" xmlns:cc="http://creativecommons.org/ns#" xmlns:dc="http://purl.org/dc/elements/1.1/" xmlns:rdf="http://www.w3.org/1999/02/22-rdf-syntax-ns#"><metadata><rdf:RDF><cc:Work rdf:about=""><dc:format>image/svg+xml</dc:format><dc:type rdf:resource="http://purl.org/dc/dcmitype/StillImage"/><dc:title/></cc:Work></rdf:RDF></metadata><defs><clipPath id="clipPath186"><path d="m1.4305e-5 0h960v540h-960z" clip-rule="evenodd"/></clipPath><clipPath id="clipPath198"><path d="m1.4305e-5 0h960v540h-960z" clip-rule="evenodd"/></clipPath><clipPath id="clipPath216"><path d="m1.4305e-5 0h960v540h-960z" clip-rule="evenodd"/></clipPath><clipPath id="clipPath228"><path d="m1.4305e-5 0h960v540h-960z" clip-rule="evenodd"/></clipPath><clipPath id="clipPath240"><path d="m1.4305e-5 0h960v540h-960z" clip-rule="evenodd"/></clipPath><clipPath id="clipPath252"><path d="m1.4305e-5 0h960v540h-960z" clip-rule="evenodd"/></clipPath><clipPath id="clipPath264"><path d="m1.4305e-5 0h960v540h-960z" clip-rule="evenodd"/></clipPath></defs><g transform="matrix(1.3333 0 0 -1.3333 -375.96 430.83)"><g><path d="m522.54 100.96-31.62 47.24 1.33 0.89 31.61-47.25zm-32.9 45.19-0.84 6.65 5.83-3.32z"/><path d="m404.41 222.08 46.984-26.874-0.66828-0.98355-46.976 26.874zm47.227-25.139 2.7596-4.1367-5.2519 0.44839z"/><path d="m456 27.1v255.1h-3v-255.1zm3 253.6-4.5 9-4.5-9z"/><path d="m346.1 154.2h292.7v-3h-292.7zm291.2 3 9-4.5-9-4.5z"/></g><g fill="none" stroke="#c30" stroke-linejoin="round" stroke-miterlimit="10" stroke-width="3"><path d="m454.5 192.7c19.67 18.05 39.33 36.1 59 45.6s39.33 10.45 59 11.4"/><path d="m572.5 249.7c-6.56-3.33-13.11-6.66-24.58-17.12-11.48-10.47-32.78-29.49-44.25-45.66-11.48-16.18-16.39-37.1-24.59-51.37-8.19-14.27-16.39-24.26-24.58-34.25"/><path d="m454.5 152.7c6.97 11.41 13.93 22.82 24.58 34.24 10.66 11.41 23.77 23.77 39.34 34.23s34.82 19.5 54.08 28.53"/><path d="m459.3 107.1c-19.67-18.113-39.33-36.227-59-45.76s-39.33-10.487-59-11.44"/><path d="m341.3 49.9c6.56 3.329 13.11 6.659 24.58 17.123 11.48 10.464 32.78 29.49 44.25 45.657 11.48 16.18 16.39 37.1 24.59 51.37 8.19 14.27 16.39 24.26 24.58 34.25"/></g><g clip-path="url(#clipPath186)"><text transform="matrix(1,0,0,-1,450.75,299.73)" fill="#000000" font-family="'Times New Roman'" font-size="24px" font-style="italic" font-weight="bold"><tspan x="0" y="0">B</tspan></text></g><g clip-path="url(#clipPath198)"><text transform="matrix(1,0,0,-1,658.52,142.98)" fill="#000000" font-family="'Times New Roman'" font-size="24.025px" font-style="italic" font-weight="bold"><tspan x="0" y="0">H</tspan></text></g><g fill="#c30"><path d="m479.38 186.68 8.78 10.34-0.77 0.64-8.77-10.34zm11.56 6.66 2.66 10.86-10.28-4.39z"/><path d="m478.69 216-7.67-5.91 0.62-0.79 7.67 5.9zm-9.62-1.74-4.87-10.06 10.97 2.14z"/><path d="m420.11 72.406 7.71 6.049-0.61 0.787-7.72-6.048zm9.7 1.89 4.79 10.104-10.96-2.234z"/></g><g clip-path="url(#clipPath216)"><text transform="matrix(1,0,0,-1,534.42,88.5)" fill="#000000" font-family="'Times New Roman'" font-size="24.025px"><tspan x="0 10.6671 22.607525 33.274624 41.274948 51.797901 58.404774 70.417274 77.000122 83.607002" y="0">coercivity</tspan></text></g><g clip-path="url(#clipPath228)"><text transform="matrix(1,0,0,-1,289.32,251.42)" fill="#000000" font-family="'Times New Roman'" font-size="24px"><tspan x="0 7.9920001 18.648001 37.007999 47.664001 59.664001 70.199997 82.199997 92.856003" y="0">remanence</tspan></text></g><g clip-path="url(#clipPath240)"><text transform="matrix(1,0,0,-1,289.32,222.63)" fill="#000000" font-family="'Times New Roman'" font-size="24px"><tspan x="0" y="0">(</tspan></text></g><g clip-path="url(#clipPath252)"><text transform="matrix(1,0,0,-1,297.32,222.63)" fill="#000000" font-family="'Times New Roman'" font-size="24px"><tspan x="0 7.9920001 18.648001 25.200001 35.855999 47.855999 54.408001 61.080002 73.008003 79.68 86.208" y="0">retentivity</tspan></text></g><g clip-path="url(#clipPath264)"><text transform="matrix(1,0,0,-1,394.95,222.63)" fill="#000000" font-family="'Times New Roman'" font-size="24px"><tspan x="0" y="0">)</tspan></text></g></g></svg>
